# xmcd
#
# Track frame offsets:
#	150
#	15246
#	27976
#	43728
#	60408
#	79263
#	92597
#	106290
#	122761
#	135929
#	152412
#	171273
#	188340
#	210565
#	229751
#	246986
#	265373
#	280520
#	294678
#	310861
#
# Disc length: 4379 seconds
#
# Revision: 1
# Processed by: cddbd v1.5.2PL0 Copyright (c) Steve Scherf et al.
# Submitted via: audiograbber 1.83.01
#
DISCID=03111914
DTITLE=Various Artist - US-Country Top 20 September 2000
DYEAR=2000
DGENRE=Country
TTITLE0=Jo Dee Messina - Thats The Way
TTITLE1=A. Jackson - Must Be Love
TTITLE2=Lonestar - What About Now
TTITLE3=She Daisy - I Will But
TTITLE4=Keith Urban - U Everything
TTITLE5=Joe Diffle - Always
TTITLE6=Brooks and Dunn - Always Love
TTITLE7=Toby Keith - Country Town
TTITLE8=Aron Tippin - Kiss This
TTITLE9=The Warren Brothers - Beat
TTITLE10=Faith Hill Let´s - Make Love
TTITLE11=LeAnn Rimes - I Need U
TTITLE12=Womak With Sons - Hope U Dance
TTITLE13=Vince Gill - Feels Like Love
TTITLE14=John Michael Montgomery - Little Girl
TTITLE15=Travis Tritt - Best
TTITLE16=Chad Brock - Yes
TTITLE17=Tracy Lawrence - Lonely
TTITLE18=Rascal Flatts-Prayin - For Daylight
TTITLE19=Phil - Just Another Day In Paradise
EXTD=
EXTT0=
EXTT1=
EXTT2=
EXTT3=
EXTT4=
EXTT5=
EXTT6=
EXTT7=
EXTT8=
EXTT9=
EXTT10=
EXTT11=
EXTT12=
EXTT13=
EXTT14=
EXTT15=
EXTT16=
EXTT17=
EXTT18=
EXTT19=
PLAYORDER=
